HIERARCHY
ROOT joint_Root
{
	OFFSET 0.0 0.0 0.0
	CHANNELS 6 Xposition Yposition Zposition Zrotation Xrotation Yrotation 
	JOINT Hips
	{
		OFFSET -0.726466 93.3139 -2.00062
		CHANNELS 6 Xposition Yposition Zposition Zrotation Xrotation Yrotation 
		JOINT Spine
		{
			OFFSET 15.7357 0.0 0.0
			CHANNELS 6 Xposition Yposition Zposition Zrotation Xrotation Yrotation 
			JOINT Chest
			{
				OFFSET 8.98455 -0.406207 0.0
				CHANNELS 6 Xposition Yposition Zposition Zrotation Xrotation Yrotation 
				JOINT Neck
				{
					OFFSET 16.3773 0.0 0.0
					CHANNELS 6 Xposition Yposition Zposition Zrotation Xrotation Yrotation 
					JOINT Head
					{
						OFFSET 6.45672 0.0 0.0
						CHANNELS 6 Xposition Yposition Zposition Zrotation Xrotation Yrotation 
						End Site
						{
							OFFSET 0.0 0.0 0.0
						}
					}
				}
				JOINT Shoulder_L
				{
					OFFSET 12.9942 -0.242716 4.98039
					CHANNELS 6 Xposition Yposition Zposition Zrotation Xrotation Yrotation 
					JOINT UpperArm_L
					{
						OFFSET 5.34809 0.0 0.0
						CHANNELS 6 Xposition Yposition Zposition Zrotation Xrotation Yrotation 
						JOINT LowerArm_L
						{
							OFFSET 24.3286 1.87007e-05 0.0
							CHANNELS 6 Xposition Yposition Zposition Zrotation Xrotation Yrotation 
							JOINT Hand_L
							{
								OFFSET 22.2916 0.0 0.0
								CHANNELS 6 Xposition Yposition Zposition Zrotation Xrotation Yrotation 
								End Site
								{
									OFFSET 0.0 0.0 0.0
								}
							}
						}
					}
				}
				JOINT Shoulder_R
				{
					OFFSET 12.9945 -0.242716 -4.98039
					CHANNELS 6 Xposition Yposition Zposition Zrotation Xrotation Yrotation 
					JOINT UpperArm_R
					{
						OFFSET -5.34813 0.0 0.0
						CHANNELS 6 Xposition Yposition Zposition Zrotation Xrotation Yrotation 
						JOINT LowerArm_R
						{
							OFFSET -24.3289 0.000322201 0.0
							CHANNELS 6 Xposition Yposition Zposition Zrotation Xrotation Yrotation 
							JOINT Hand_R
							{
								OFFSET -22.2915 -0.000108084 0.0
								CHANNELS 6 Xposition Yposition Zposition Zrotation Xrotation Yrotation 
								End Site
								{
									OFFSET 0.0 0.0 0.0
								}
							}
						}
					}
				}
			}
		}
		JOINT UpperLeg_L
		{
			OFFSET -2.19248 -6.46944 0.0
			CHANNELS 6 Xposition Yposition Zposition Zrotation Xrotation Yrotation 
			JOINT LowerLeg_L
			{
				OFFSET 39.0811 0.0 -1.23785e-05
				CHANNELS 6 Xposition Yposition Zposition Zrotation Xrotation Yrotation 
				JOINT Foot_L
				{
					OFFSET 40.9854 0.0 -1.26872e-05
					CHANNELS 6 Xposition Yposition Zposition Zrotation Xrotation Yrotation 
					JOINT Toes_L
					{
						OFFSET 11.7543 0.0 0.0
						CHANNELS 6 Xposition Yposition Zposition Zrotation Xrotation Yrotation 
						End Site
						{
							OFFSET 0.0 0.0 0.0
						}
					}
				}
			}
		}
		JOINT UpperLeg_R
		{
			OFFSET -2.19251 6.46944 0.0
			CHANNELS 6 Xposition Yposition Zposition Zrotation Xrotation Yrotation 
			JOINT LowerLeg_R
			{
				OFFSET -39.0811 -0.00228153 -0.0401928
				CHANNELS 6 Xposition Yposition Zposition Zrotation Xrotation Yrotation 
				JOINT Foot_R
				{
					OFFSET -40.9854 0.0 0.0
					CHANNELS 6 Xposition Yposition Zposition Zrotation Xrotation Yrotation 
					JOINT Toes_R
					{
						OFFSET -11.7543 0.0 0.0
						CHANNELS 6 Xposition Yposition Zposition Zrotation Xrotation Yrotation 
						End Site
						{
							OFFSET 0.0 0.0 0.0
						}
					}
				}
			}
		}
	}
}
MOTION
Frames:	4
Frame Time:	0.0333333
0.000000 0.000000 0.000000 0.000000 0.000000 -0.000000 -0.114031 92.157400 -0.486313 88.202300 -0.185092 6.217630 15.735700 0.000005 -0.000001 83.216800 85.041600 -82.684000 8.984550 -0.406207 -0.000000 2.087510 -1.196880 1.086570 16.377300 -0.000001 -0.000001 2.375480 -2.474960 0.139700 6.456720 -0.000001 -0.000000 5.979040 -2.949300 -0.933735 12.994200 -0.242716 4.980390 -89.915400 -0.275472 -72.923900 5.348090 -0.000007 -0.000001 -66.202300 40.599000 -17.331300 24.328600 0.000019 0.000005 2.556570 6.524460 -21.452100 22.291600 -0.000001 0.000005 0.938627 5.468830 -5.341090 12.994500 -0.242716 -4.980390 88.334300 5.509210 -73.148200 -5.348130 -0.000001 -0.000004 -64.065200 41.422200 -18.089400 -24.328900 0.000322 -0.000009 4.171210 12.320800 -18.873400 -22.291500 -0.000108 -0.000004 2.928690 5.340060 -1.073430 -2.192480 -6.469440 -0.000000 -175.504000 -8.356230 -0.954861 39.081100 -0.000007 -0.000012 -0.108343 0.244932 23.861800 40.985400 -0.000006 -0.000013 0.384762 4.242180 -66.877300 11.754300 -0.000000 0.000003 -0.000044 -0.000506 -16.597200 -2.192510 6.469440 -0.000001 178.550000 14.880800 -178.032000 -39.081100 -0.002282 -0.040193 -0.063803 0.181196 20.327000 -40.985400 0.000008 0.000006 2.211240 7.254100 -66.219000 -11.754300 -0.000006 -0.000006 -0.007967 -0.087764 -20.146900
0.000000 0.000000 0.000000 0.000000 0.000000 -0.000000 -0.141465 92.147800 -0.535495 88.199400 0.013513 6.377560 15.735700 0.000005 -0.000001 83.380800 85.001500 -82.881800 8.984550 -0.406207 -0.000000 2.170020 -1.175900 1.019340 16.377300 -0.000001 -0.000001 2.282220 -2.532170 0.188440 6.456720 -0.000001 -0.000000 6.106600 -2.857540 -0.799773 12.994200 -0.242716 4.980390 -90.034800 0.116364 -73.335200 5.348090 -0.000007 -0.000001 -62.675700 40.617800 -20.698900 24.328600 0.000019 0.000005 3.096380 7.593720 -22.257800 22.291600 -0.000001 0.000005 -1.002570 5.503780 -6.687400 12.994500 -0.242716 -4.980390 88.340900 5.527860 -73.265300 -5.348130 -0.000001 -0.000004 -62.644400 40.453000 -19.452500 -24.328900 0.000322 -0.000009 4.858440 12.624100 -21.256200 -22.291500 -0.000108 -0.000004 -1.997580 5.304100 -0.022390 -2.192480 -6.469440 -0.000000 -175.480000 -8.210840 -0.909158 39.081100 -0.000007 -0.000012 -0.108444 0.243994 23.962900 40.985400 -0.000006 -0.000013 0.388926 4.306810 -66.875900 11.754300 -0.000000 0.000003 -0.000051 -0.000573 -16.599800 -2.192510 6.469440 -0.000001 178.556000 14.921700 -177.940000 -39.081100 -0.002282 -0.040193 -0.061478 0.173906 20.435900 -40.985400 0.000008 0.000006 2.315530 7.093360 -66.276200 -11.754300 -0.000006 -0.000006 -0.008262 -0.090160 -20.244700
0.000000 0.000000 0.000000 0.000000 0.000000 -0.000000 -0.174200 92.135900 -0.648709 88.255300 0.261668 6.659130 15.735700 0.000005 -0.000001 83.083100 84.936500 -82.664800 8.984550 -0.406207 -0.000000 2.292450 -1.238650 0.860668 16.377300 -0.000001 -0.000001 2.510660 -2.533560 0.195348 6.456720 -0.000001 -0.000000 6.161370 -2.769890 -0.487655 12.994200 -0.242716 4.980390 -90.132000 0.448952 -73.620500 5.348090 -0.000007 -0.000001 -57.381700 39.229800 -25.794500 24.328600 0.000019 0.000005 4.946980 10.621900 -25.148000 22.291600 -0.000001 0.000005 -0.109323 5.516700 -7.215580 12.994500 -0.242716 -4.980390 88.382900 5.385660 -73.259300 -5.348130 -0.000001 -0.000004 -60.402600 37.888900 -22.428900 -24.328900 0.000322 -0.000009 5.488480 12.460600 -24.008800 -22.291500 -0.000108 -0.000004 -8.787050 5.266080 1.012800 -2.192480 -6.469440 -0.000000 -175.521000 -7.995830 -0.802024 39.081100 -0.000007 -0.000012 -0.107737 0.241159 24.072700 40.985400 -0.000006 -0.000013 0.384093 4.305980 -66.825700 11.754300 -0.000000 0.000003 -0.000047 -0.000534 -16.598300 -2.192510 6.469440 -0.000001 178.446000 15.042100 -177.799000 -39.081100 -0.002282 -0.040193 -0.065533 0.183055 20.613000 -40.985400 0.000008 0.000006 2.232080 6.967970 -66.290900 -11.754300 -0.000006 -0.000006 -0.008260 -0.090138 -20.243900
0.000000 0.000000 0.000000 0.000000 0.000000 -0.000000 -0.220793 92.127700 -0.837128 88.274700 0.372052 6.960820 15.735700 0.000005 -0.000001 82.803200 84.892700 -82.451900 8.984550 -0.406207 -0.000000 2.372730 -1.295200 0.728672 16.377300 -0.000001 -0.000001 2.977670 -2.519090 0.212519 6.456720 -0.000001 -0.000000 6.373070 -2.776880 -0.229774 12.994200 -0.242716 4.980390 -90.119800 0.414763 -73.888600 5.348090 -0.000007 -0.000001 -53.460700 34.275600 -30.449100 24.328600 0.000019 0.000005 6.610590 11.680700 -29.787600 22.291600 -0.000001 0.000005 2.892030 5.547610 -8.572480 12.994500 -0.242716 -4.980390 88.449600 5.140070 -73.190300 -5.348130 -0.000001 -0.000004 -56.883700 34.398400 -27.155800 -24.328900 0.000322 -0.000009 6.437110 12.275900 -27.951900 -22.291500 -0.000108 -0.000004 -10.722700 5.245520 1.549630 -2.192480 -6.469440 -0.000000 -175.468000 -7.995600 -0.700534 39.081100 -0.000007 -0.000012 -0.107998 0.240318 24.199000 40.985400 -0.000006 -0.000013 0.392668 4.457200 -66.753100 11.754300 -0.000000 0.000003 -0.000045 -0.000520 -16.597800 -2.192510 6.469440 -0.000001 178.434000 14.989800 -177.719000 -39.081100 -0.002282 -0.040193 -0.066632 0.184099 20.805400 -40.985400 0.000008 0.000006 2.220300 6.786520 -66.261200 -11.754300 -0.000006 -0.000006 -0.008220 -0.089818 -20.230800
